<svg xmlns="http://www.w3.org/2000/svg" xmlns:xlink="http://www.w3.org/1999/xlink" width="500" zoomAndPan="magnify" viewBox="0 0 375 374.999991" height="500" preserveAspectRatio="xMidYMid meet" version="1.2"><g id="b02c6be7dc"><path style=" stroke:none;fill-rule:nonzero;fill:#ffffff;fill-opacity:1;" d="M 198.8125 60.570312 C 180.542969 60.570312 165.695312 75.417969 165.695312 93.691406 C 165.695312 111.960938 180.542969 126.808594 198.8125 126.808594 C 217.085938 126.808594 231.933594 111.960938 231.933594 93.691406 C 231.933594 75.417969 217.085938 60.570312 198.8125 60.570312 Z M 198.8125 63.449219 C 215.527344 63.449219 229.054688 76.976562 229.054688 93.691406 C 229.054688 93.792969 229.046875 93.894531 229.046875 93.996094 C 228.125 93.910156 227.058594 93.832031 225.707031 93.78125 C 223.792969 93.714844 221.382812 93.734375 218.648438 93.871094 C 218.75 93.164062 218.820312 92.449219 218.820312 91.710938 C 218.960938 89.015625 218.054688 86.492188 216.582031 84.265625 C 216.9375 83.035156 217.355469 81.472656 217.460938 79.699219 C 217.578125 77.675781 217.40625 75.433594 215.78125 73.917969 L 215.363281 73.53125 L 214.796875 73.53125 C 210.933594 73.53125 208.289062 75.148438 206.671875 76.429688 C 204.335938 75.527344 201.710938 74.96875 198.8125 74.96875 C 195.898438 74.96875 193.25 75.535156 190.816406 76.433594 C 189.203125 75.152344 186.554688 73.53125 182.6875 73.53125 L 182.121094 73.53125 L 181.703125 73.914062 C 180.125 75.382812 179.976562 77.566406 180.078125 79.578125 C 180.164062 81.351562 180.558594 82.964844 180.90625 84.253906 C 179.410156 86.527344 178.511719 89.113281 178.511719 91.671875 C 178.511719 92.410156 178.578125 93.128906 178.679688 93.835938 C 176.078125 93.714844 173.761719 93.691406 171.921875 93.757812 C 170.566406 93.804688 169.503906 93.886719 168.582031 93.972656 C 168.582031 93.878906 168.574219 93.785156 168.574219 93.691406 C 168.574219 76.976562 182.097656 63.449219 198.8125 63.449219 Z M 183.542969 76.597656 C 186.449219 76.875 188.636719 78.171875 189.648438 79.070312 L 190.324219 79.667969 L 191.15625 79.328125 C 193.433594 78.390625 195.972656 77.851562 198.8125 77.851562 C 201.65625 77.851562 204.195312 78.390625 206.300781 79.3125 L 207.144531 79.683594 L 207.832031 79.070312 C 208.84375 78.171875 211.035156 76.875 213.941406 76.597656 C 214.328125 77.238281 214.664062 78.152344 214.582031 79.527344 C 214.484375 81.179688 214.042969 82.976562 213.710938 84.042969 L 213.496094 84.738281 L 213.925781 85.324219 C 215.351562 87.269531 216.078125 89.371094 215.953125 91.59375 L 215.949219 91.632812 L 215.949219 91.671875 C 215.949219 95.265625 214.65625 98.144531 211.898438 100.273438 C 209.144531 102.40625 204.792969 103.769531 198.671875 103.769531 C 192.546875 103.769531 188.191406 102.40625 185.4375 100.273438 C 182.679688 98.144531 181.390625 95.265625 181.390625 91.671875 C 181.390625 89.5625 182.152344 87.242188 183.558594 85.324219 L 183.980469 84.75 L 183.777344 84.070312 C 183.445312 82.933594 183.035156 81.097656 182.953125 79.4375 C 182.886719 78.054688 183.210938 77.183594 183.542969 76.597656 Z M 175.609375 95.160156 C 176.625 95.175781 177.792969 95.230469 178.960938 95.289062 C 179.070312 95.738281 179.199219 96.179688 179.355469 96.609375 C 174.589844 96.710938 171.027344 97.1875 168.832031 97.597656 C 168.738281 96.878906 168.664062 96.152344 168.625 95.417969 C 170.246094 95.261719 172.535156 95.121094 175.609375 95.160156 Z M 222.019531 95.183594 C 225.089844 95.144531 227.375 95.285156 229 95.4375 C 228.957031 96.164062 228.886719 96.878906 228.792969 97.589844 C 226.519531 97.171875 222.859375 96.695312 217.976562 96.617188 C 218.125 96.195312 218.253906 95.761719 218.363281 95.320312 C 219.652344 95.253906 220.910156 95.199219 222.019531 95.183594 Z M 179.96875 98.039062 C 180.828125 99.761719 182.054688 101.296875 183.675781 102.550781 C 185.894531 104.269531 188.777344 105.464844 192.300781 106.105469 C 191.839844 106.582031 191.421875 107.101562 191.046875 107.648438 L 190.960938 107.574219 C 190.96875 107.5625 190.246094 107.925781 189.164062 108.023438 C 188.082031 108.121094 186.75 108.089844 185.566406 108.089844 C 183.800781 108.089844 183.027344 107.257812 181.785156 105.738281 C 181.097656 104.8125 180.257812 104.0625 179.445312 103.492188 C 178.609375 102.90625 177.898438 102.496094 177.019531 102.351562 L 176.902344 102.328125 L 176.78125 102.328125 C 176.109375 102.328125 175.457031 102.378906 174.851562 103.074219 C 174.546875 103.417969 174.339844 104.0625 174.472656 104.605469 C 174.609375 105.148438 174.953125 105.484375 175.261719 105.6875 C 177.230469 107 177.578125 109.597656 178.8125 111.90625 C 179.960938 114.203125 182.449219 115.289062 184.988281 115.289062 L 188.734375 115.289062 L 188.734375 122.207031 C 178.605469 118.632812 170.96875 109.824219 169.050781 99.023438 C 171.257812 98.605469 174.949219 98.109375 179.96875 98.039062 Z M 217.363281 98.050781 C 222.496094 98.09375 226.289062 98.59375 228.578125 99.015625 C 226.660156 109.820312 219.023438 118.628906 208.894531 122.207031 L 208.894531 114.714844 C 208.894531 112.433594 208.144531 109.914062 206.839844 107.816406 C 206.445312 107.179688 205.980469 106.578125 205.460938 106.035156 C 208.792969 105.378906 211.53125 104.199219 213.664062 102.550781 C 215.28125 101.300781 216.507812 99.765625 217.363281 98.050781 Z M 196.941406 106.792969 L 200.972656 106.792969 C 202.144531 106.792969 203.394531 107.726562 204.394531 109.335938 C 205.394531 110.945312 206.011719 113.105469 206.011719 114.714844 L 206.011719 123.0625 C 203.707031 123.625 201.296875 123.929688 198.8125 123.929688 C 196.332031 123.929688 193.921875 123.625 191.613281 123.0625 L 191.613281 114.714844 C 191.613281 113.144531 192.289062 110.984375 193.355469 109.371094 C 194.421875 107.753906 195.769531 106.792969 196.941406 106.792969 Z M 180.539062 108.496094 C 181.785156 109.789062 183.292969 110.96875 185.566406 110.96875 C 186.6875 110.96875 188.089844 111.011719 189.417969 110.890625 C 189.425781 110.890625 189.429688 110.890625 189.433594 110.886719 C 189.257812 111.390625 189.128906 111.898438 189.015625 112.410156 L 184.988281 112.410156 C 183.214844 112.410156 181.960938 111.769531 181.382812 110.613281 L 181.371094 110.59375 L 181.363281 110.578125 C 181.125 110.136719 180.8125 109.257812 180.539062 108.496094 Z M 180.539062 108.496094 "/></g></svg>