<svg xmlns="http://www.w3.org/2000/svg" xmlns:xlink="http://www.w3.org/1999/xlink" width="500" zoomAndPan="magnify" viewBox="0 0 375 374.999991" height="500" preserveAspectRatio="xMidYMid meet" version="1.2"><defs><clipPath id="6684ce91ef"><path d="M 119.308594 140 L 188 140 L 188 200 L 119.308594 200 Z M 119.308594 140 "/></clipPath><clipPath id="321afa7077"><path d="M 187 108.519531 L 255.808594 108.519531 L 255.808594 169 L 187 169 Z M 187 108.519531 "/></clipPath></defs><g id="ebcd47e633"><g clip-rule="nonzero" clip-path="url(#6684ce91ef)"><path style=" stroke:none;fill-rule:nonzero;fill:#0059ff;fill-opacity:1;" d="M 165.125 182.492188 L 165.125 190.777344 L 127.617188 173.351562 L 127.617188 166.628906 L 165.125 149.203125 L 165.125 157.488281 L 136.761719 169.910156 L 136.761719 170.066406 Z M 187.402344 140 L 124.675781 140 C 121.714844 140 119.3125 142.402344 119.3125 145.363281 L 119.3125 194.617188 C 119.3125 197.578125 121.714844 199.980469 124.675781 199.980469 L 169.988281 199.980469 L 187.402344 140 "/></g><g clip-rule="nonzero" clip-path="url(#321afa7077)"><path style=" stroke:none;fill-rule:nonzero;fill:#522196;fill-opacity:1;" d="M 247.082031 142.132812 L 209.578125 159.324219 L 209.578125 151.039062 L 238.566406 138.613281 L 238.566406 138.457031 L 209.578125 126.035156 L 209.578125 117.75 L 247.082031 134.941406 Z M 204.816406 108.546875 L 187.402344 168.527344 L 250.023438 168.527344 C 252.988281 168.527344 255.386719 166.125 255.386719 163.164062 L 255.386719 113.910156 C 255.386719 110.949219 252.988281 108.546875 250.023438 108.546875 L 204.816406 108.546875 "/></g></g></svg>