<svg xmlns="http://www.w3.org/2000/svg" xmlns:xlink="http://www.w3.org/1999/xlink" width="500" zoomAndPan="magnify" viewBox="0 0 375 374.999991" height="500" preserveAspectRatio="xMidYMid meet" version="1.2"><g id="503b64cc08"><path style=" stroke:none;fill-rule:nonzero;fill:#ffffff;fill-opacity:1;" d="M 235.8125 71.59375 C 225.492188 71.59375 217.09375 79.992188 217.09375 90.3125 L 217.09375 116.234375 C 217.09375 126.554688 225.492188 134.953125 235.8125 134.953125 L 261.734375 134.953125 C 272.054688 134.953125 280.453125 126.554688 280.453125 116.234375 L 280.453125 90.3125 C 280.453125 79.992188 272.054688 71.59375 261.734375 71.59375 Z M 235.8125 74.472656 L 261.734375 74.472656 C 270.5 74.472656 277.574219 81.546875 277.574219 90.3125 L 277.574219 116.234375 C 277.574219 124.996094 270.5 132.074219 261.734375 132.074219 L 235.8125 132.074219 C 227.050781 132.074219 219.972656 124.996094 219.972656 116.234375 L 219.972656 90.3125 C 219.972656 81.546875 227.050781 74.472656 235.8125 74.472656 Z M 266.054688 83.113281 C 265.671875 83.113281 265.304688 83.1875 264.953125 83.332031 C 264.597656 83.476562 264.289062 83.6875 264.019531 83.957031 C 263.746094 84.226562 263.539062 84.539062 263.394531 84.890625 C 263.246094 85.242188 263.175781 85.609375 263.175781 85.992188 C 263.175781 86.375 263.246094 86.742188 263.394531 87.09375 C 263.539062 87.449219 263.746094 87.757812 264.019531 88.027344 C 264.289062 88.300781 264.597656 88.507812 264.953125 88.652344 C 265.304688 88.800781 265.671875 88.871094 266.054688 88.871094 C 266.4375 88.871094 266.804688 88.800781 267.15625 88.652344 C 267.507812 88.507812 267.820312 88.300781 268.089844 88.027344 C 268.359375 87.757812 268.570312 87.449219 268.714844 87.09375 C 268.859375 86.742188 268.933594 86.375 268.933594 85.992188 C 268.933594 85.609375 268.859375 85.242188 268.714844 84.890625 C 268.570312 84.539062 268.359375 84.226562 268.089844 83.957031 C 267.820312 83.6875 267.507812 83.476562 267.15625 83.332031 C 266.804688 83.1875 266.4375 83.113281 266.054688 83.113281 Z M 248.773438 87.433594 C 240.042969 87.433594 232.933594 94.542969 232.933594 103.273438 C 232.933594 112.003906 240.042969 119.113281 248.773438 119.113281 C 257.503906 119.113281 264.613281 112.003906 264.613281 103.273438 C 264.613281 94.542969 257.503906 87.433594 248.773438 87.433594 Z M 248.773438 90.3125 C 255.949219 90.3125 261.734375 96.097656 261.734375 103.273438 C 261.734375 110.445312 255.949219 116.234375 248.773438 116.234375 C 241.601562 116.234375 235.8125 110.445312 235.8125 103.273438 C 235.8125 96.097656 241.601562 90.3125 248.773438 90.3125 Z M 248.773438 90.3125 "/></g></svg>