<svg xmlns="http://www.w3.org/2000/svg" xmlns:xlink="http://www.w3.org/1999/xlink" width="500" zoomAndPan="magnify" viewBox="0 0 375 374.999991" height="500" preserveAspectRatio="xMidYMid meet" version="1.2"><g id="15dcecac51"><path style=" stroke:none;fill-rule:nonzero;fill:#ffffff;fill-opacity:1;" d="M 216.316406 72.753906 C 212.367188 72.753906 209.132812 75.984375 209.132812 79.933594 L 209.132812 125.902344 C 209.132812 129.851562 212.367188 133.085938 216.316406 133.085938 L 262.285156 133.085938 C 266.234375 133.085938 269.464844 129.851562 269.464844 125.902344 L 269.464844 79.933594 C 269.464844 75.984375 266.234375 72.753906 262.285156 72.753906 Z M 216.316406 75.625 L 262.285156 75.625 C 264.679688 75.625 266.59375 77.539062 266.59375 79.933594 L 266.59375 125.902344 C 266.59375 128.300781 264.679688 130.210938 262.285156 130.210938 L 216.316406 130.210938 C 213.917969 130.210938 212.007812 128.300781 212.007812 125.902344 L 212.007812 79.933594 C 212.007812 77.539062 213.917969 75.625 216.316406 75.625 Z M 223.5 82.824219 C 221.925781 82.824219 220.511719 83.292969 219.460938 84.175781 C 218.414062 85.058594 217.769531 86.375 217.769531 87.789062 C 217.769531 90.46875 220.097656 92.5625 223.054688 92.769531 C 223.058594 92.769531 223.058594 92.769531 223.0625 92.769531 C 223.203125 92.820312 223.347656 92.84375 223.5 92.847656 C 226.765625 92.847656 229.226562 90.558594 229.226562 87.789062 C 229.226562 87.761719 229.226562 87.738281 229.226562 87.710938 C 229.078125 84.980469 226.644531 82.824219 223.5 82.824219 Z M 223.5 85.664062 C 225.5 85.664062 226.289062 86.558594 226.375 87.824219 C 226.355469 89.054688 225.597656 90.007812 223.5 90.007812 C 221.507812 90.007812 220.609375 88.988281 220.609375 87.789062 C 220.609375 87.1875 220.828125 86.734375 221.289062 86.347656 C 221.75 85.960938 222.488281 85.664062 223.5 85.664062 Z M 219.191406 94.300781 C 219 94.300781 218.816406 94.335938 218.640625 94.410156 C 218.464844 94.480469 218.308594 94.585938 218.175781 94.71875 C 218.039062 94.855469 217.933594 95.011719 217.863281 95.1875 C 217.789062 95.363281 217.753906 95.546875 217.753906 95.734375 L 217.753906 123.027344 C 217.753906 123.21875 217.789062 123.402344 217.863281 123.578125 C 217.933594 123.753906 218.039062 123.910156 218.175781 124.042969 C 218.308594 124.179688 218.464844 124.285156 218.640625 124.355469 C 218.816406 124.429688 219 124.464844 219.191406 124.464844 L 227.808594 124.464844 C 228 124.464844 228.183594 124.429688 228.359375 124.355469 C 228.535156 124.285156 228.691406 124.179688 228.824219 124.042969 C 228.957031 123.910156 229.0625 123.753906 229.136719 123.578125 C 229.207031 123.402344 229.246094 123.21875 229.246094 123.027344 L 229.246094 95.734375 C 229.246094 95.546875 229.207031 95.363281 229.136719 95.1875 C 229.0625 95.011719 228.957031 94.855469 228.824219 94.71875 C 228.691406 94.585938 228.535156 94.480469 228.359375 94.410156 C 228.183594 94.335938 228 94.300781 227.808594 94.300781 Z M 232.117188 94.300781 C 231.925781 94.300781 231.746094 94.335938 231.566406 94.410156 C 231.390625 94.480469 231.238281 94.585938 231.101562 94.71875 C 230.96875 94.855469 230.863281 95.011719 230.789062 95.1875 C 230.71875 95.363281 230.679688 95.546875 230.679688 95.734375 L 230.679688 123.027344 C 230.679688 123.21875 230.71875 123.402344 230.789062 123.578125 C 230.863281 123.753906 230.96875 123.910156 231.101562 124.042969 C 231.238281 124.179688 231.390625 124.285156 231.566406 124.355469 C 231.746094 124.429688 231.925781 124.464844 232.117188 124.464844 L 240.738281 124.464844 C 240.925781 124.464844 241.109375 124.429688 241.285156 124.355469 C 241.460938 124.285156 241.617188 124.179688 241.753906 124.042969 C 241.886719 123.910156 241.992188 123.753906 242.0625 123.578125 C 242.136719 123.402344 242.171875 123.21875 242.171875 123.027344 L 242.171875 108.664062 C 242.171875 107.472656 242.5 106.285156 243.070312 105.511719 C 243.644531 104.734375 244.367188 104.269531 245.738281 104.292969 C 247.15625 104.316406 247.90625 104.800781 248.472656 105.5625 C 249.039062 106.324219 249.355469 107.46875 249.355469 108.664062 L 249.355469 123.027344 C 249.355469 123.21875 249.390625 123.402344 249.464844 123.578125 C 249.539062 123.753906 249.640625 123.910156 249.777344 124.042969 C 249.910156 124.179688 250.066406 124.285156 250.242188 124.355469 C 250.417969 124.429688 250.601562 124.464844 250.792969 124.464844 L 259.410156 124.464844 C 259.601562 124.464844 259.785156 124.429688 259.960938 124.355469 C 260.136719 124.285156 260.292969 124.179688 260.425781 124.042969 C 260.5625 123.910156 260.664062 123.753906 260.738281 123.578125 C 260.8125 123.402344 260.847656 123.21875 260.847656 123.027344 L 260.847656 107.605469 C 260.847656 103.347656 259.585938 99.980469 257.425781 97.699219 C 255.269531 95.421875 252.261719 94.300781 249.085938 94.300781 C 246.066406 94.300781 243.769531 95.3125 242.171875 96.34375 L 242.171875 95.734375 C 242.171875 95.546875 242.136719 95.363281 242.0625 95.1875 C 241.992188 95.011719 241.886719 94.855469 241.753906 94.71875 C 241.617188 94.585938 241.460938 94.480469 241.285156 94.410156 C 241.109375 94.335938 240.925781 94.300781 240.738281 94.300781 Z M 220.625 97.171875 L 226.371094 97.171875 L 226.371094 121.59375 L 220.625 121.59375 Z M 233.554688 97.171875 L 239.300781 97.171875 L 239.300781 99.414062 C 239.300781 99.722656 239.390625 100.003906 239.570312 100.253906 C 239.75 100.503906 239.988281 100.679688 240.28125 100.777344 C 240.574219 100.875 240.867188 100.878906 241.164062 100.785156 C 241.457031 100.695312 241.699219 100.523438 241.882812 100.277344 C 241.882812 100.277344 244.140625 97.171875 249.085938 97.171875 C 251.605469 97.171875 253.765625 98.007812 255.34375 99.675781 C 256.921875 101.339844 257.976562 103.90625 257.976562 107.605469 L 257.976562 121.59375 L 252.230469 121.59375 L 252.230469 108.664062 C 252.230469 106.988281 251.828125 105.253906 250.777344 103.847656 C 249.730469 102.4375 247.964844 101.457031 245.789062 101.421875 C 243.601562 101.382812 241.8125 102.382812 240.757812 103.808594 C 239.707031 105.234375 239.300781 106.984375 239.300781 108.664062 L 239.300781 121.59375 L 233.554688 121.59375 Z M 233.554688 97.171875 "/></g></svg>